<?xml version="1.0" encoding="utf-8" standalone="no"?>
<!DOCTYPE svg PUBLIC "-//W3C//DTD SVG 1.1//EN"
  "http://www.w3.org/Graphics/SVG/1.1/DTD/svg11.dtd">
<!-- Created with matplotlib (https://matplotlib.org/) -->
<svg height="432pt" version="1.1" viewBox="0 0 576 432" width="576pt" xmlns="http://www.w3.org/2000/svg" xmlns:xlink="http://www.w3.org/1999/xlink">
 <defs>
  <style type="text/css">
*{stroke-linecap:butt;stroke-linejoin:round;}
  </style>
 </defs>
 <g id="figure_1">
  <g id="patch_1">
   <path d="M 0 432 
L 576 432 
L 576 0 
L 0 0 
z
" style="fill:transparent;"/>
  </g>
  <g id="axes_1">
   <g id="patch_2">
    <path d="M 72 384.48 
L 518.4 384.48 
L 518.4 51.84 
L 72 51.84 
z
" style="fill:#ffffff;"/>
   </g>
   <g id="line2d_1">
    <path clip-path="url(#p282837d5c0)" style="fill:none;stroke:#363737;stroke-dasharray:3,2;stroke-dashoffset:0;"/>
   </g>
   <g id="matplotlib.axis_1">
    <g id="xtick_1">
     <g id="line2d_2">
      <defs>
       <path d="M 0 0 
L 0 3.5 
" id="m70db34a175" style="stroke:#000000;stroke-width:0.8;"/>
      </defs>
      <g>
       <use style="stroke:#000000;stroke-width:0.8;" x="92.290909" xlink:href="#m70db34a175" y="384.48"/>
      </g>
     </g>
     <g id="text_1">
      <!-- 0 -->
      <defs>
       <path d="M 31.78125 66.40625 
Q 24.171875 66.40625 20.328125 58.90625 
Q 16.5 51.421875 16.5 36.375 
Q 16.5 21.390625 20.328125 13.890625 
Q 24.171875 6.390625 31.78125 6.390625 
Q 39.453125 6.390625 43.28125 13.890625 
Q 47.125 21.390625 47.125 36.375 
Q 47.125 51.421875 43.28125 58.90625 
Q 39.453125 66.40625 31.78125 66.40625 
z
M 31.78125 74.21875 
Q 44.046875 74.21875 50.515625 64.515625 
Q 56.984375 54.828125 56.984375 36.375 
Q 56.984375 17.96875 50.515625 8.265625 
Q 44.046875 -1.421875 31.78125 -1.421875 
Q 19.53125 -1.421875 13.0625 8.265625 
Q 6.59375 17.96875 6.59375 36.375 
Q 6.59375 54.828125 13.0625 64.515625 
Q 19.53125 74.21875 31.78125 74.21875 
z
" id="DejaVuSans-48"/>
      </defs>
      <g transform="translate(89.109659 399.078438)scale(0.1 -0.1)">
       <use xlink:href="#DejaVuSans-48"/>
      </g>
     </g>
    </g>
    <g id="xtick_2">
     <g id="line2d_3">
      <g>
       <use style="stroke:#000000;stroke-width:0.8;" x="159.927273" xlink:href="#m70db34a175" y="384.48"/>
      </g>
     </g>
     <g id="text_2">
      <!-- 10 -->
      <defs>
       <path d="M 12.40625 8.296875 
L 28.515625 8.296875 
L 28.515625 63.921875 
L 10.984375 60.40625 
L 10.984375 69.390625 
L 28.421875 72.90625 
L 38.28125 72.90625 
L 38.28125 8.296875 
L 54.390625 8.296875 
L 54.390625 0 
L 12.40625 0 
z
" id="DejaVuSans-49"/>
      </defs>
      <g transform="translate(153.564773 399.078438)scale(0.1 -0.1)">
       <use xlink:href="#DejaVuSans-49"/>
       <use x="63.623047" xlink:href="#DejaVuSans-48"/>
      </g>
     </g>
    </g>
    <g id="xtick_3">
     <g id="line2d_4">
      <g>
       <use style="stroke:#000000;stroke-width:0.8;" x="227.563636" xlink:href="#m70db34a175" y="384.48"/>
      </g>
     </g>
     <g id="text_3">
      <!-- 20 -->
      <defs>
       <path d="M 19.1875 8.296875 
L 53.609375 8.296875 
L 53.609375 0 
L 7.328125 0 
L 7.328125 8.296875 
Q 12.9375 14.109375 22.625 23.890625 
Q 32.328125 33.6875 34.8125 36.53125 
Q 39.546875 41.84375 41.421875 45.53125 
Q 43.3125 49.21875 43.3125 52.78125 
Q 43.3125 58.59375 39.234375 62.25 
Q 35.15625 65.921875 28.609375 65.921875 
Q 23.96875 65.921875 18.8125 64.3125 
Q 13.671875 62.703125 7.8125 59.421875 
L 7.8125 69.390625 
Q 13.765625 71.78125 18.9375 73 
Q 24.125 74.21875 28.421875 74.21875 
Q 39.75 74.21875 46.484375 68.546875 
Q 53.21875 62.890625 53.21875 53.421875 
Q 53.21875 48.921875 51.53125 44.890625 
Q 49.859375 40.875 45.40625 35.40625 
Q 44.1875 33.984375 37.640625 27.21875 
Q 31.109375 20.453125 19.1875 8.296875 
z
" id="DejaVuSans-50"/>
      </defs>
      <g transform="translate(221.201136 399.078438)scale(0.1 -0.1)">
       <use xlink:href="#DejaVuSans-50"/>
       <use x="63.623047" xlink:href="#DejaVuSans-48"/>
      </g>
     </g>
    </g>
    <g id="xtick_4">
     <g id="line2d_5">
      <g>
       <use style="stroke:#000000;stroke-width:0.8;" x="295.2" xlink:href="#m70db34a175" y="384.48"/>
      </g>
     </g>
     <g id="text_4">
      <!-- 30 -->
      <defs>
       <path d="M 40.578125 39.3125 
Q 47.65625 37.796875 51.625 33 
Q 55.609375 28.21875 55.609375 21.1875 
Q 55.609375 10.40625 48.1875 4.484375 
Q 40.765625 -1.421875 27.09375 -1.421875 
Q 22.515625 -1.421875 17.65625 -0.515625 
Q 12.796875 0.390625 7.625 2.203125 
L 7.625 11.71875 
Q 11.71875 9.328125 16.59375 8.109375 
Q 21.484375 6.890625 26.8125 6.890625 
Q 36.078125 6.890625 40.9375 10.546875 
Q 45.796875 14.203125 45.796875 21.1875 
Q 45.796875 27.640625 41.28125 31.265625 
Q 36.765625 34.90625 28.71875 34.90625 
L 20.21875 34.90625 
L 20.21875 43.015625 
L 29.109375 43.015625 
Q 36.375 43.015625 40.234375 45.921875 
Q 44.09375 48.828125 44.09375 54.296875 
Q 44.09375 59.90625 40.109375 62.90625 
Q 36.140625 65.921875 28.71875 65.921875 
Q 24.65625 65.921875 20.015625 65.03125 
Q 15.375 64.15625 9.8125 62.3125 
L 9.8125 71.09375 
Q 15.4375 72.65625 20.34375 73.4375 
Q 25.25 74.21875 29.59375 74.21875 
Q 40.828125 74.21875 47.359375 69.109375 
Q 53.90625 64.015625 53.90625 55.328125 
Q 53.90625 49.265625 50.4375 45.09375 
Q 46.96875 40.921875 40.578125 39.3125 
z
" id="DejaVuSans-51"/>
      </defs>
      <g transform="translate(288.8375 399.078438)scale(0.1 -0.1)">
       <use xlink:href="#DejaVuSans-51"/>
       <use x="63.623047" xlink:href="#DejaVuSans-48"/>
      </g>
     </g>
    </g>
    <g id="xtick_5">
     <g id="line2d_6">
      <g>
       <use style="stroke:#000000;stroke-width:0.8;" x="362.836364" xlink:href="#m70db34a175" y="384.48"/>
      </g>
     </g>
     <g id="text_5">
      <!-- 40 -->
      <defs>
       <path d="M 37.796875 64.3125 
L 12.890625 25.390625 
L 37.796875 25.390625 
z
M 35.203125 72.90625 
L 47.609375 72.90625 
L 47.609375 25.390625 
L 58.015625 25.390625 
L 58.015625 17.1875 
L 47.609375 17.1875 
L 47.609375 0 
L 37.796875 0 
L 37.796875 17.1875 
L 4.890625 17.1875 
L 4.890625 26.703125 
z
" id="DejaVuSans-52"/>
      </defs>
      <g transform="translate(356.473864 399.078438)scale(0.1 -0.1)">
       <use xlink:href="#DejaVuSans-52"/>
       <use x="63.623047" xlink:href="#DejaVuSans-48"/>
      </g>
     </g>
    </g>
    <g id="xtick_6">
     <g id="line2d_7">
      <g>
       <use style="stroke:#000000;stroke-width:0.8;" x="430.472727" xlink:href="#m70db34a175" y="384.48"/>
      </g>
     </g>
     <g id="text_6">
      <!-- 50 -->
      <defs>
       <path d="M 10.796875 72.90625 
L 49.515625 72.90625 
L 49.515625 64.59375 
L 19.828125 64.59375 
L 19.828125 46.734375 
Q 21.96875 47.46875 24.109375 47.828125 
Q 26.265625 48.1875 28.421875 48.1875 
Q 40.625 48.1875 47.75 41.5 
Q 54.890625 34.8125 54.890625 23.390625 
Q 54.890625 11.625 47.5625 5.09375 
Q 40.234375 -1.421875 26.90625 -1.421875 
Q 22.3125 -1.421875 17.546875 -0.640625 
Q 12.796875 0.140625 7.71875 1.703125 
L 7.71875 11.625 
Q 12.109375 9.234375 16.796875 8.0625 
Q 21.484375 6.890625 26.703125 6.890625 
Q 35.15625 6.890625 40.078125 11.328125 
Q 45.015625 15.765625 45.015625 23.390625 
Q 45.015625 31 40.078125 35.4375 
Q 35.15625 39.890625 26.703125 39.890625 
Q 22.75 39.890625 18.8125 39.015625 
Q 14.890625 38.140625 10.796875 36.28125 
z
" id="DejaVuSans-53"/>
      </defs>
      <g transform="translate(424.110227 399.078438)scale(0.1 -0.1)">
       <use xlink:href="#DejaVuSans-53"/>
       <use x="63.623047" xlink:href="#DejaVuSans-48"/>
      </g>
     </g>
    </g>
    <g id="xtick_7">
     <g id="line2d_8">
      <g>
       <use style="stroke:#000000;stroke-width:0.8;" x="498.109091" xlink:href="#m70db34a175" y="384.48"/>
      </g>
     </g>
     <g id="text_7">
      <!-- 60 -->
      <defs>
       <path d="M 33.015625 40.375 
Q 26.375 40.375 22.484375 35.828125 
Q 18.609375 31.296875 18.609375 23.390625 
Q 18.609375 15.53125 22.484375 10.953125 
Q 26.375 6.390625 33.015625 6.390625 
Q 39.65625 6.390625 43.53125 10.953125 
Q 47.40625 15.53125 47.40625 23.390625 
Q 47.40625 31.296875 43.53125 35.828125 
Q 39.65625 40.375 33.015625 40.375 
z
M 52.59375 71.296875 
L 52.59375 62.3125 
Q 48.875 64.0625 45.09375 64.984375 
Q 41.3125 65.921875 37.59375 65.921875 
Q 27.828125 65.921875 22.671875 59.328125 
Q 17.53125 52.734375 16.796875 39.40625 
Q 19.671875 43.65625 24.015625 45.921875 
Q 28.375 48.1875 33.59375 48.1875 
Q 44.578125 48.1875 50.953125 41.515625 
Q 57.328125 34.859375 57.328125 23.390625 
Q 57.328125 12.15625 50.6875 5.359375 
Q 44.046875 -1.421875 33.015625 -1.421875 
Q 20.359375 -1.421875 13.671875 8.265625 
Q 6.984375 17.96875 6.984375 36.375 
Q 6.984375 53.65625 15.1875 63.9375 
Q 23.390625 74.21875 37.203125 74.21875 
Q 40.921875 74.21875 44.703125 73.484375 
Q 48.484375 72.75 52.59375 71.296875 
z
" id="DejaVuSans-54"/>
      </defs>
      <g transform="translate(491.746591 399.078438)scale(0.1 -0.1)">
       <use xlink:href="#DejaVuSans-54"/>
       <use x="63.623047" xlink:href="#DejaVuSans-48"/>
      </g>
     </g>
    </g>
    <g id="text_8">
     <!-- Temps de calcul (s) -->
     <defs>
      <path d="M -0.296875 72.90625 
L 61.375 72.90625 
L 61.375 64.59375 
L 35.5 64.59375 
L 35.5 0 
L 25.59375 0 
L 25.59375 64.59375 
L -0.296875 64.59375 
z
" id="DejaVuSans-84"/>
      <path d="M 56.203125 29.59375 
L 56.203125 25.203125 
L 14.890625 25.203125 
Q 15.484375 15.921875 20.484375 11.0625 
Q 25.484375 6.203125 34.421875 6.203125 
Q 39.59375 6.203125 44.453125 7.46875 
Q 49.3125 8.734375 54.109375 11.28125 
L 54.109375 2.78125 
Q 49.265625 0.734375 44.1875 -0.34375 
Q 39.109375 -1.421875 33.890625 -1.421875 
Q 20.796875 -1.421875 13.15625 6.1875 
Q 5.515625 13.8125 5.515625 26.8125 
Q 5.515625 40.234375 12.765625 48.109375 
Q 20.015625 56 32.328125 56 
Q 43.359375 56 49.78125 48.890625 
Q 56.203125 41.796875 56.203125 29.59375 
z
M 47.21875 32.234375 
Q 47.125 39.59375 43.09375 43.984375 
Q 39.0625 48.390625 32.421875 48.390625 
Q 24.90625 48.390625 20.390625 44.140625 
Q 15.875 39.890625 15.1875 32.171875 
z
" id="DejaVuSans-101"/>
      <path d="M 52 44.1875 
Q 55.375 50.25 60.0625 53.125 
Q 64.75 56 71.09375 56 
Q 79.640625 56 84.28125 50.015625 
Q 88.921875 44.046875 88.921875 33.015625 
L 88.921875 0 
L 79.890625 0 
L 79.890625 32.71875 
Q 79.890625 40.578125 77.09375 44.375 
Q 74.3125 48.1875 68.609375 48.1875 
Q 61.625 48.1875 57.5625 43.546875 
Q 53.515625 38.921875 53.515625 30.90625 
L 53.515625 0 
L 44.484375 0 
L 44.484375 32.71875 
Q 44.484375 40.625 41.703125 44.40625 
Q 38.921875 48.1875 33.109375 48.1875 
Q 26.21875 48.1875 22.15625 43.53125 
Q 18.109375 38.875 18.109375 30.90625 
L 18.109375 0 
L 9.078125 0 
L 9.078125 54.6875 
L 18.109375 54.6875 
L 18.109375 46.1875 
Q 21.1875 51.21875 25.484375 53.609375 
Q 29.78125 56 35.6875 56 
Q 41.65625 56 45.828125 52.96875 
Q 50 49.953125 52 44.1875 
z
" id="DejaVuSans-109"/>
      <path d="M 18.109375 8.203125 
L 18.109375 -20.796875 
L 9.078125 -20.796875 
L 9.078125 54.6875 
L 18.109375 54.6875 
L 18.109375 46.390625 
Q 20.953125 51.265625 25.265625 53.625 
Q 29.59375 56 35.59375 56 
Q 45.5625 56 51.78125 48.09375 
Q 58.015625 40.1875 58.015625 27.296875 
Q 58.015625 14.40625 51.78125 6.484375 
Q 45.5625 -1.421875 35.59375 -1.421875 
Q 29.59375 -1.421875 25.265625 0.953125 
Q 20.953125 3.328125 18.109375 8.203125 
z
M 48.6875 27.296875 
Q 48.6875 37.203125 44.609375 42.84375 
Q 40.53125 48.484375 33.40625 48.484375 
Q 26.265625 48.484375 22.1875 42.84375 
Q 18.109375 37.203125 18.109375 27.296875 
Q 18.109375 17.390625 22.1875 11.75 
Q 26.265625 6.109375 33.40625 6.109375 
Q 40.53125 6.109375 44.609375 11.75 
Q 48.6875 17.390625 48.6875 27.296875 
z
" id="DejaVuSans-112"/>
      <path d="M 44.28125 53.078125 
L 44.28125 44.578125 
Q 40.484375 46.53125 36.375 47.5 
Q 32.28125 48.484375 27.875 48.484375 
Q 21.1875 48.484375 17.84375 46.4375 
Q 14.5 44.390625 14.5 40.28125 
Q 14.5 37.15625 16.890625 35.375 
Q 19.28125 33.59375 26.515625 31.984375 
L 29.59375 31.296875 
Q 39.15625 29.25 43.1875 25.515625 
Q 47.21875 21.78125 47.21875 15.09375 
Q 47.21875 7.46875 41.1875 3.015625 
Q 35.15625 -1.421875 24.609375 -1.421875 
Q 20.21875 -1.421875 15.453125 -0.5625 
Q 10.6875 0.296875 5.421875 2 
L 5.421875 11.28125 
Q 10.40625 8.6875 15.234375 7.390625 
Q 20.0625 6.109375 24.8125 6.109375 
Q 31.15625 6.109375 34.5625 8.28125 
Q 37.984375 10.453125 37.984375 14.40625 
Q 37.984375 18.0625 35.515625 20.015625 
Q 33.0625 21.96875 24.703125 23.78125 
L 21.578125 24.515625 
Q 13.234375 26.265625 9.515625 29.90625 
Q 5.8125 33.546875 5.8125 39.890625 
Q 5.8125 47.609375 11.28125 51.796875 
Q 16.75 56 26.8125 56 
Q 31.78125 56 36.171875 55.265625 
Q 40.578125 54.546875 44.28125 53.078125 
z
" id="DejaVuSans-115"/>
      <path id="DejaVuSans-32"/>
      <path d="M 45.40625 46.390625 
L 45.40625 75.984375 
L 54.390625 75.984375 
L 54.390625 0 
L 45.40625 0 
L 45.40625 8.203125 
Q 42.578125 3.328125 38.25 0.953125 
Q 33.9375 -1.421875 27.875 -1.421875 
Q 17.96875 -1.421875 11.734375 6.484375 
Q 5.515625 14.40625 5.515625 27.296875 
Q 5.515625 40.1875 11.734375 48.09375 
Q 17.96875 56 27.875 56 
Q 33.9375 56 38.25 53.625 
Q 42.578125 51.265625 45.40625 46.390625 
z
M 14.796875 27.296875 
Q 14.796875 17.390625 18.875 11.75 
Q 22.953125 6.109375 30.078125 6.109375 
Q 37.203125 6.109375 41.296875 11.75 
Q 45.40625 17.390625 45.40625 27.296875 
Q 45.40625 37.203125 41.296875 42.84375 
Q 37.203125 48.484375 30.078125 48.484375 
Q 22.953125 48.484375 18.875 42.84375 
Q 14.796875 37.203125 14.796875 27.296875 
z
" id="DejaVuSans-100"/>
      <path d="M 48.78125 52.59375 
L 48.78125 44.1875 
Q 44.96875 46.296875 41.140625 47.34375 
Q 37.3125 48.390625 33.40625 48.390625 
Q 24.65625 48.390625 19.8125 42.84375 
Q 14.984375 37.3125 14.984375 27.296875 
Q 14.984375 17.28125 19.8125 11.734375 
Q 24.65625 6.203125 33.40625 6.203125 
Q 37.3125 6.203125 41.140625 7.25 
Q 44.96875 8.296875 48.78125 10.40625 
L 48.78125 2.09375 
Q 45.015625 0.34375 40.984375 -0.53125 
Q 36.96875 -1.421875 32.421875 -1.421875 
Q 20.0625 -1.421875 12.78125 6.34375 
Q 5.515625 14.109375 5.515625 27.296875 
Q 5.515625 40.671875 12.859375 48.328125 
Q 20.21875 56 33.015625 56 
Q 37.15625 56 41.109375 55.140625 
Q 45.0625 54.296875 48.78125 52.59375 
z
" id="DejaVuSans-99"/>
      <path d="M 34.28125 27.484375 
Q 23.390625 27.484375 19.1875 25 
Q 14.984375 22.515625 14.984375 16.5 
Q 14.984375 11.71875 18.140625 8.90625 
Q 21.296875 6.109375 26.703125 6.109375 
Q 34.1875 6.109375 38.703125 11.40625 
Q 43.21875 16.703125 43.21875 25.484375 
L 43.21875 27.484375 
z
M 52.203125 31.203125 
L 52.203125 0 
L 43.21875 0 
L 43.21875 8.296875 
Q 40.140625 3.328125 35.546875 0.953125 
Q 30.953125 -1.421875 24.3125 -1.421875 
Q 15.921875 -1.421875 10.953125 3.296875 
Q 6 8.015625 6 15.921875 
Q 6 25.140625 12.171875 29.828125 
Q 18.359375 34.515625 30.609375 34.515625 
L 43.21875 34.515625 
L 43.21875 35.40625 
Q 43.21875 41.609375 39.140625 45 
Q 35.0625 48.390625 27.6875 48.390625 
Q 23 48.390625 18.546875 47.265625 
Q 14.109375 46.140625 10.015625 43.890625 
L 10.015625 52.203125 
Q 14.9375 54.109375 19.578125 55.046875 
Q 24.21875 56 28.609375 56 
Q 40.484375 56 46.34375 49.84375 
Q 52.203125 43.703125 52.203125 31.203125 
z
" id="DejaVuSans-97"/>
      <path d="M 9.421875 75.984375 
L 18.40625 75.984375 
L 18.40625 0 
L 9.421875 0 
z
" id="DejaVuSans-108"/>
      <path d="M 8.5 21.578125 
L 8.5 54.6875 
L 17.484375 54.6875 
L 17.484375 21.921875 
Q 17.484375 14.15625 20.5 10.265625 
Q 23.53125 6.390625 29.59375 6.390625 
Q 36.859375 6.390625 41.078125 11.03125 
Q 45.3125 15.671875 45.3125 23.6875 
L 45.3125 54.6875 
L 54.296875 54.6875 
L 54.296875 0 
L 45.3125 0 
L 45.3125 8.40625 
Q 42.046875 3.421875 37.71875 1 
Q 33.40625 -1.421875 27.6875 -1.421875 
Q 18.265625 -1.421875 13.375 4.4375 
Q 8.5 10.296875 8.5 21.578125 
z
M 31.109375 56 
z
" id="DejaVuSans-117"/>
      <path d="M 31 75.875 
Q 24.46875 64.65625 21.28125 53.65625 
Q 18.109375 42.671875 18.109375 31.390625 
Q 18.109375 20.125 21.3125 9.0625 
Q 24.515625 -2 31 -13.1875 
L 23.1875 -13.1875 
Q 15.875 -1.703125 12.234375 9.375 
Q 8.59375 20.453125 8.59375 31.390625 
Q 8.59375 42.28125 12.203125 53.3125 
Q 15.828125 64.359375 23.1875 75.875 
z
" id="DejaVuSans-40"/>
      <path d="M 8.015625 75.875 
L 15.828125 75.875 
Q 23.140625 64.359375 26.78125 53.3125 
Q 30.421875 42.28125 30.421875 31.390625 
Q 30.421875 20.453125 26.78125 9.375 
Q 23.140625 -1.703125 15.828125 -13.1875 
L 8.015625 -13.1875 
Q 14.5 -2 17.703125 9.0625 
Q 20.90625 20.125 20.90625 31.390625 
Q 20.90625 42.671875 17.703125 53.65625 
Q 14.5 64.65625 8.015625 75.875 
z
" id="DejaVuSans-41"/>
     </defs>
     <g transform="translate(246.4 412.756563)scale(0.1 -0.1)">
      <use xlink:href="#DejaVuSans-84"/>
      <use x="60.818359" xlink:href="#DejaVuSans-101"/>
      <use x="122.341797" xlink:href="#DejaVuSans-109"/>
      <use x="219.753906" xlink:href="#DejaVuSans-112"/>
      <use x="283.230469" xlink:href="#DejaVuSans-115"/>
      <use x="335.330078" xlink:href="#DejaVuSans-32"/>
      <use x="367.117188" xlink:href="#DejaVuSans-100"/>
      <use x="430.59375" xlink:href="#DejaVuSans-101"/>
      <use x="492.117188" xlink:href="#DejaVuSans-32"/>
      <use x="523.904297" xlink:href="#DejaVuSans-99"/>
      <use x="578.884766" xlink:href="#DejaVuSans-97"/>
      <use x="640.164062" xlink:href="#DejaVuSans-108"/>
      <use x="667.947266" xlink:href="#DejaVuSans-99"/>
      <use x="722.927734" xlink:href="#DejaVuSans-117"/>
      <use x="786.306641" xlink:href="#DejaVuSans-108"/>
      <use x="814.089844" xlink:href="#DejaVuSans-32"/>
      <use x="845.876953" xlink:href="#DejaVuSans-40"/>
      <use x="884.890625" xlink:href="#DejaVuSans-115"/>
      <use x="936.990234" xlink:href="#DejaVuSans-41"/>
     </g>
    </g>
   </g>
   <g id="matplotlib.axis_2">
    <g id="ytick_1">
     <g id="line2d_9">
      <defs>
       <path d="M 0 0 
L -3.5 0 
" id="mff060f6d8f" style="stroke:#000000;stroke-width:0.8;"/>
      </defs>
      <g>
       <use style="stroke:#000000;stroke-width:0.8;" x="72" xlink:href="#mff060f6d8f" y="335.759893"/>
      </g>
     </g>
     <g id="text_9">
      <!-- $\mathdefault{10^{-3}}$ -->
      <defs>
       <path d="M 10.59375 35.5 
L 73.1875 35.5 
L 73.1875 27.203125 
L 10.59375 27.203125 
z
" id="DejaVuSans-8722"/>
      </defs>
      <g transform="translate(41.5 339.559112)scale(0.1 -0.1)">
       <use transform="translate(0 0.765625)" xlink:href="#DejaVuSans-49"/>
       <use transform="translate(63.623047 0.765625)" xlink:href="#DejaVuSans-48"/>
       <use transform="translate(128.203125 39.046875)scale(0.7)" xlink:href="#DejaVuSans-8722"/>
       <use transform="translate(186.855469 39.046875)scale(0.7)" xlink:href="#DejaVuSans-51"/>
      </g>
     </g>
    </g>
    <g id="ytick_2">
     <g id="line2d_10">
      <g>
       <use style="stroke:#000000;stroke-width:0.8;" x="72" xlink:href="#mff060f6d8f" y="218.829069"/>
      </g>
     </g>
     <g id="text_10">
      <!-- $\mathdefault{10^{-2}}$ -->
      <g transform="translate(41.5 222.628288)scale(0.1 -0.1)">
       <use transform="translate(0 0.765625)" xlink:href="#DejaVuSans-49"/>
       <use transform="translate(63.623047 0.765625)" xlink:href="#DejaVuSans-48"/>
       <use transform="translate(128.203125 39.046875)scale(0.7)" xlink:href="#DejaVuSans-8722"/>
       <use transform="translate(186.855469 39.046875)scale(0.7)" xlink:href="#DejaVuSans-50"/>
      </g>
     </g>
    </g>
    <g id="ytick_3">
     <g id="line2d_11">
      <g>
       <use style="stroke:#000000;stroke-width:0.8;" x="72" xlink:href="#mff060f6d8f" y="101.898246"/>
      </g>
     </g>
     <g id="text_11">
      <!-- $\mathdefault{10^{-1}}$ -->
      <g transform="translate(41.5 105.697465)scale(0.1 -0.1)">
       <use transform="translate(0 0.684375)" xlink:href="#DejaVuSans-49"/>
       <use transform="translate(63.623047 0.684375)" xlink:href="#DejaVuSans-48"/>
       <use transform="translate(128.203125 38.965625)scale(0.7)" xlink:href="#DejaVuSans-8722"/>
       <use transform="translate(186.855469 38.965625)scale(0.7)" xlink:href="#DejaVuSans-49"/>
      </g>
     </g>
    </g>
    <g id="ytick_4">
     <g id="line2d_12">
      <defs>
       <path d="M 0 0 
L -2 0 
" id="mcf4297b88d" style="stroke:#000000;stroke-width:0.6;"/>
      </defs>
      <g>
       <use style="stroke:#000000;stroke-width:0.6;" x="72" xlink:href="#mcf4297b88d" y="382.291346"/>
      </g>
     </g>
    </g>
    <g id="ytick_5">
     <g id="line2d_13">
      <g>
       <use style="stroke:#000000;stroke-width:0.6;" x="72" xlink:href="#mcf4297b88d" y="370.959578"/>
      </g>
     </g>
    </g>
    <g id="ytick_6">
     <g id="line2d_14">
      <g>
       <use style="stroke:#000000;stroke-width:0.6;" x="72" xlink:href="#mcf4297b88d" y="361.70085"/>
      </g>
     </g>
    </g>
    <g id="ytick_7">
     <g id="line2d_15">
      <g>
       <use style="stroke:#000000;stroke-width:0.6;" x="72" xlink:href="#mcf4297b88d" y="353.872707"/>
      </g>
     </g>
    </g>
    <g id="ytick_8">
     <g id="line2d_16">
      <g>
       <use style="stroke:#000000;stroke-width:0.6;" x="72" xlink:href="#mcf4297b88d" y="347.091661"/>
      </g>
     </g>
    </g>
    <g id="ytick_9">
     <g id="line2d_17">
      <g>
       <use style="stroke:#000000;stroke-width:0.6;" x="72" xlink:href="#mcf4297b88d" y="341.110354"/>
      </g>
     </g>
    </g>
    <g id="ytick_10">
     <g id="line2d_18">
      <g>
       <use style="stroke:#000000;stroke-width:0.6;" x="72" xlink:href="#mcf4297b88d" y="300.560208"/>
      </g>
     </g>
    </g>
    <g id="ytick_11">
     <g id="line2d_19">
      <g>
       <use style="stroke:#000000;stroke-width:0.6;" x="72" xlink:href="#mcf4297b88d" y="279.969712"/>
      </g>
     </g>
    </g>
    <g id="ytick_12">
     <g id="line2d_20">
      <g>
       <use style="stroke:#000000;stroke-width:0.6;" x="72" xlink:href="#mcf4297b88d" y="265.360522"/>
      </g>
     </g>
    </g>
    <g id="ytick_13">
     <g id="line2d_21">
      <g>
       <use style="stroke:#000000;stroke-width:0.6;" x="72" xlink:href="#mcf4297b88d" y="254.028755"/>
      </g>
     </g>
    </g>
    <g id="ytick_14">
     <g id="line2d_22">
      <g>
       <use style="stroke:#000000;stroke-width:0.6;" x="72" xlink:href="#mcf4297b88d" y="244.770026"/>
      </g>
     </g>
    </g>
    <g id="ytick_15">
     <g id="line2d_23">
      <g>
       <use style="stroke:#000000;stroke-width:0.6;" x="72" xlink:href="#mcf4297b88d" y="236.941883"/>
      </g>
     </g>
    </g>
    <g id="ytick_16">
     <g id="line2d_24">
      <g>
       <use style="stroke:#000000;stroke-width:0.6;" x="72" xlink:href="#mcf4297b88d" y="230.160837"/>
      </g>
     </g>
    </g>
    <g id="ytick_17">
     <g id="line2d_25">
      <g>
       <use style="stroke:#000000;stroke-width:0.6;" x="72" xlink:href="#mcf4297b88d" y="224.17953"/>
      </g>
     </g>
    </g>
    <g id="ytick_18">
     <g id="line2d_26">
      <g>
       <use style="stroke:#000000;stroke-width:0.6;" x="72" xlink:href="#mcf4297b88d" y="183.629384"/>
      </g>
     </g>
    </g>
    <g id="ytick_19">
     <g id="line2d_27">
      <g>
       <use style="stroke:#000000;stroke-width:0.6;" x="72" xlink:href="#mcf4297b88d" y="163.038888"/>
      </g>
     </g>
    </g>
    <g id="ytick_20">
     <g id="line2d_28">
      <g>
       <use style="stroke:#000000;stroke-width:0.6;" x="72" xlink:href="#mcf4297b88d" y="148.429699"/>
      </g>
     </g>
    </g>
    <g id="ytick_21">
     <g id="line2d_29">
      <g>
       <use style="stroke:#000000;stroke-width:0.6;" x="72" xlink:href="#mcf4297b88d" y="137.097931"/>
      </g>
     </g>
    </g>
    <g id="ytick_22">
     <g id="line2d_30">
      <g>
       <use style="stroke:#000000;stroke-width:0.6;" x="72" xlink:href="#mcf4297b88d" y="127.839203"/>
      </g>
     </g>
    </g>
    <g id="ytick_23">
     <g id="line2d_31">
      <g>
       <use style="stroke:#000000;stroke-width:0.6;" x="72" xlink:href="#mcf4297b88d" y="120.01106"/>
      </g>
     </g>
    </g>
    <g id="ytick_24">
     <g id="line2d_32">
      <g>
       <use style="stroke:#000000;stroke-width:0.6;" x="72" xlink:href="#mcf4297b88d" y="113.230013"/>
      </g>
     </g>
    </g>
    <g id="ytick_25">
     <g id="line2d_33">
      <g>
       <use style="stroke:#000000;stroke-width:0.6;" x="72" xlink:href="#mcf4297b88d" y="107.248707"/>
      </g>
     </g>
    </g>
    <g id="ytick_26">
     <g id="line2d_34">
      <g>
       <use style="stroke:#000000;stroke-width:0.6;" x="72" xlink:href="#mcf4297b88d" y="66.69856"/>
      </g>
     </g>
    </g>
    <g id="text_12">
     <!-- Écart au temps de référence (s) -->
     <defs>
      <path d="M 9.8125 72.90625 
L 55.90625 72.90625 
L 55.90625 64.59375 
L 19.671875 64.59375 
L 19.671875 43.015625 
L 54.390625 43.015625 
L 54.390625 34.71875 
L 19.671875 34.71875 
L 19.671875 8.296875 
L 56.78125 8.296875 
L 56.78125 0 
L 9.8125 0 
z
M 35.40625 92.734375 
L 44.4375 92.734375 
L 33.296875 79.84375 
L 25.828125 79.84375 
z
" id="DejaVuSans-201"/>
      <path d="M 41.109375 46.296875 
Q 39.59375 47.171875 37.8125 47.578125 
Q 36.03125 48 33.890625 48 
Q 26.265625 48 22.1875 43.046875 
Q 18.109375 38.09375 18.109375 28.8125 
L 18.109375 0 
L 9.078125 0 
L 9.078125 54.6875 
L 18.109375 54.6875 
L 18.109375 46.1875 
Q 20.953125 51.171875 25.484375 53.578125 
Q 30.03125 56 36.53125 56 
Q 37.453125 56 38.578125 55.875 
Q 39.703125 55.765625 41.0625 55.515625 
z
" id="DejaVuSans-114"/>
      <path d="M 18.3125 70.21875 
L 18.3125 54.6875 
L 36.8125 54.6875 
L 36.8125 47.703125 
L 18.3125 47.703125 
L 18.3125 18.015625 
Q 18.3125 11.328125 20.140625 9.421875 
Q 21.96875 7.515625 27.59375 7.515625 
L 36.8125 7.515625 
L 36.8125 0 
L 27.59375 0 
Q 17.1875 0 13.234375 3.875 
Q 9.28125 7.765625 9.28125 18.015625 
L 9.28125 47.703125 
L 2.6875 47.703125 
L 2.6875 54.6875 
L 9.28125 54.6875 
L 9.28125 70.21875 
z
" id="DejaVuSans-116"/>
      <path d="M 56.203125 29.59375 
L 56.203125 25.203125 
L 14.890625 25.203125 
Q 15.484375 15.921875 20.484375 11.0625 
Q 25.484375 6.203125 34.421875 6.203125 
Q 39.59375 6.203125 44.453125 7.46875 
Q 49.3125 8.734375 54.109375 11.28125 
L 54.109375 2.78125 
Q 49.265625 0.734375 44.1875 -0.34375 
Q 39.109375 -1.421875 33.890625 -1.421875 
Q 20.796875 -1.421875 13.15625 6.1875 
Q 5.515625 13.8125 5.515625 26.8125 
Q 5.515625 40.234375 12.765625 48.109375 
Q 20.015625 56 32.328125 56 
Q 43.359375 56 49.78125 48.890625 
Q 56.203125 41.796875 56.203125 29.59375 
z
M 47.21875 32.234375 
Q 47.125 39.59375 43.09375 43.984375 
Q 39.0625 48.390625 32.421875 48.390625 
Q 24.90625 48.390625 20.390625 44.140625 
Q 15.875 39.890625 15.1875 32.171875 
z
M 38.578125 79.984375 
L 48.296875 79.984375 
L 32.375 61.625 
L 24.90625 61.625 
z
" id="DejaVuSans-233"/>
      <path d="M 37.109375 75.984375 
L 37.109375 68.5 
L 28.515625 68.5 
Q 23.6875 68.5 21.796875 66.546875 
Q 19.921875 64.59375 19.921875 59.515625 
L 19.921875 54.6875 
L 34.71875 54.6875 
L 34.71875 47.703125 
L 19.921875 47.703125 
L 19.921875 0 
L 10.890625 0 
L 10.890625 47.703125 
L 2.296875 47.703125 
L 2.296875 54.6875 
L 10.890625 54.6875 
L 10.890625 58.5 
Q 10.890625 67.625 15.140625 71.796875 
Q 19.390625 75.984375 28.609375 75.984375 
z
" id="DejaVuSans-102"/>
      <path d="M 54.890625 33.015625 
L 54.890625 0 
L 45.90625 0 
L 45.90625 32.71875 
Q 45.90625 40.484375 42.875 44.328125 
Q 39.84375 48.1875 33.796875 48.1875 
Q 26.515625 48.1875 22.3125 43.546875 
Q 18.109375 38.921875 18.109375 30.90625 
L 18.109375 0 
L 9.078125 0 
L 9.078125 54.6875 
L 18.109375 54.6875 
L 18.109375 46.1875 
Q 21.34375 51.125 25.703125 53.5625 
Q 30.078125 56 35.796875 56 
Q 45.21875 56 50.046875 50.171875 
Q 54.890625 44.34375 54.890625 33.015625 
z
" id="DejaVuSans-110"/>
     </defs>
     <g transform="translate(35.420312 297.861562)rotate(-90)scale(0.1 -0.1)">
      <use xlink:href="#DejaVuSans-201"/>
      <use x="63.183594" xlink:href="#DejaVuSans-99"/>
      <use x="118.164062" xlink:href="#DejaVuSans-97"/>
      <use x="179.443359" xlink:href="#DejaVuSans-114"/>
      <use x="220.556641" xlink:href="#DejaVuSans-116"/>
      <use x="259.765625" xlink:href="#DejaVuSans-32"/>
      <use x="291.552734" xlink:href="#DejaVuSans-97"/>
      <use x="352.832031" xlink:href="#DejaVuSans-117"/>
      <use x="416.210938" xlink:href="#DejaVuSans-32"/>
      <use x="447.998047" xlink:href="#DejaVuSans-116"/>
      <use x="487.207031" xlink:href="#DejaVuSans-101"/>
      <use x="548.730469" xlink:href="#DejaVuSans-109"/>
      <use x="646.142578" xlink:href="#DejaVuSans-112"/>
      <use x="709.619141" xlink:href="#DejaVuSans-115"/>
      <use x="761.71875" xlink:href="#DejaVuSans-32"/>
      <use x="793.505859" xlink:href="#DejaVuSans-100"/>
      <use x="856.982422" xlink:href="#DejaVuSans-101"/>
      <use x="918.505859" xlink:href="#DejaVuSans-32"/>
      <use x="950.292969" xlink:href="#DejaVuSans-114"/>
      <use x="991.375" xlink:href="#DejaVuSans-233"/>
      <use x="1052.898438" xlink:href="#DejaVuSans-102"/>
      <use x="1088.103516" xlink:href="#DejaVuSans-233"/>
      <use x="1149.626953" xlink:href="#DejaVuSans-114"/>
      <use x="1190.708984" xlink:href="#DejaVuSans-101"/>
      <use x="1252.232422" xlink:href="#DejaVuSans-110"/>
      <use x="1315.611328" xlink:href="#DejaVuSans-99"/>
      <use x="1370.591797" xlink:href="#DejaVuSans-101"/>
      <use x="1432.115234" xlink:href="#DejaVuSans-32"/>
      <use x="1463.902344" xlink:href="#DejaVuSans-40"/>
      <use x="1502.916016" xlink:href="#DejaVuSans-115"/>
      <use x="1555.015625" xlink:href="#DejaVuSans-41"/>
     </g>
    </g>
   </g>
   <g id="line2d_35">
    <path clip-path="url(#p282837d5c0)" d="M 92.290909 66.96 
L 115.605348 89.664648 
L 133.052331 103.625277 
L 146.112184 109.524142 
L 159.099373 118.9417 
L 170.225961 119.155252 
L 182.07597 129.789256 
L 194.121728 133.577021 
L 204.484603 135.312034 
L 218.051312 139.376278 
L 229.022428 141.306865 
L 239.784117 141.509562 
L 250.126413 144.455254 
L 260.813614 148.379364 
L 275.178132 151.675983 
L 286.426392 154.864191 
L 296.721501 157.450814 
L 306.996283 160.766362 
L 317.000613 161.857103 
L 326.836054 163.254323 
L 336.827011 165.159558 
L 346.58149 169.839929 
L 356.484402 170.652787 
L 366.45521 171.146822 
L 376.479811 173.448769 
L 386.308522 175.606465 
L 396.029062 177.259111 
L 405.878904 177.897712 
L 416.201086 179.667072 
L 426.861236 183.108163 
L 437.812055 185.290609 
L 447.539362 185.290609 
L 457.753377 187.251942 
L 468.231164 187.342919 
L 477.844544 191.913364 
L 487.632821 192.919607 
L 497.623881 195.848022 
L 498.109091 195.90188 
" style="fill:none;stroke:#1f77b4;stroke-linecap:square;stroke-width:1.5;"/>
   </g>
   <g id="line2d_36">
    <path clip-path="url(#p282837d5c0)" d="M 92.607805 71.462871 
L 93.030566 74.286999 
L 93.876025 87.777769 
L 94.4044 89.049768 
L 94.510074 92.117598 
L 95.672495 93.111583 
L 96.517885 96.832608 
L 97.257609 97.016787 
L 97.574487 106.489107 
L 97.891655 106.926417 
L 98.208535 106.963809 
L 98.525557 107.207533 
L 99.2653 108.675616 
L 99.2653 113.183696 
L 99.582311 114.359915 
L 100.005151 116.559599 
L 100.110822 119.837487 
L 100.533527 120.492381 
L 100.63907 122.395135 
L 100.956223 123.058403 
L 101.590142 123.071243 
L 101.695796 127.356532 
L 101.801615 128.687258 
L 102.435535 128.802138 
L 102.435535 129.613658 
L 102.75269 130.885733 
L 103.281038 131.26158 
L 103.703631 133.671871 
L 104.020781 139.111407 
L 104.337806 139.146643 
L 104.86618 140.413646 
L 105.183077 142.216078 
L 105.500224 142.799816 
L 106.028473 145.025875 
L 106.556842 145.204276 
L 107.824937 146.105806 
L 108.141958 146.146247 
L 108.247767 153.419851 
L 108.670464 153.677289 
L 109.093031 154.267273 
L 109.832735 154.433704 
L 111.523674 154.576795 
L 111.62935 155.032594 
L 113.637162 155.565524 
L 113.954184 157.602677 
L 115.327959 157.780427 
L 115.961875 158.112192 
L 115.961875 159.016332 
L 117.018621 159.303848 
L 117.124424 160.06974 
L 117.441321 160.712435 
L 117.441321 161.336079 
L 117.652651 180.535587 
L 118.286696 180.695107 
L 119.132238 183.571018 
L 119.554814 184.03813 
L 120.083184 184.509579 
L 120.61168 184.552656 
L 121.774108 186.083839 
L 122.302477 186.306397 
L 122.408152 187.571077 
L 123.359098 188.030492 
L 123.78179 188.076663 
L 123.887467 188.308149 
L 124.415971 188.4941 
L 124.838671 188.821163 
L 125.472581 189.150346 
L 125.57826 189.815184 
L 126.106616 191.764133 
L 126.735588 206.466458 
L 127.255272 210.828559 
L 128.100518 211.191354 
L 129.263083 211.410282 
L 129.896999 213.882918 
L 130.425375 214.734628 
L 131.05942 216.320766 
L 131.587923 216.401388 
L 132.327644 224.23787 
L 132.433315 224.615871 
L 132.750209 224.710813 
L 133.490055 225.380422 
L 133.595736 225.476805 
L 134.018436 227.544298 
L 134.969504 227.745664 
L 135.709225 229.281911 
L 136.448958 229.594817 
L 137.294222 229.699549 
L 137.400023 230.12065 
L 137.611367 230.12065 
L 137.928392 230.438784 
L 138.139741 234.766801 
L 138.35109 234.882775 
L 139.407708 236.295516 
L 139.830529 239.881238 
L 140.147436 240.138118 
L 141.627002 240.78606 
L 141.732528 241.442376 
L 141.943877 244.435403 
L 142.260914 250.532805 
L 143.846162 252.138046 
L 144.268716 252.301397 
L 144.268716 252.794626 
L 144.585932 253.627471 
L 145.853835 254.133814 
L 146.910735 254.303723 
L 147.650448 256.744146 
L 148.495959 257.463507 
L 149.552592 258.562023 
L 151.032034 260.639844 
L 152.194458 260.833021 
L 152.617154 261.417002 
L 153.739471 262.007776 
L 154.267847 264.442099 
L 154.584866 264.442099 
L 157.015387 264.859411 
L 157.543754 269.232747 
L 158.072126 269.461621 
L 158.177655 270.856957 
L 158.706173 271.093287 
L 160.079943 272.291719 
L 161.87641 272.534837 
L 162.193435 272.779125 
L 164.201251 273.768199 
L 164.729621 274.270055 
L 165.046642 276.85654 
L 166.841061 278.200922 
L 167.369433 278.748801 
L 168.95468 279.024973 
L 171.068171 280.428823 
L 174.026934 281.290146 
L 174.132605 282.166331 
L 175.189481 282.461784 
L 175.506509 282.758967 
L 176.563116 285.201193 
L 178.253901 285.830553 
L 182.903723 287.766831 
L 185.545438 288.429018 
L 188.61015 289.779873 
L 190.089589 290.817132 
L 191.743858 291.167647 
L 193.889511 292.957457 
L 194.52341 293.323116 
L 195.580173 293.691426 
L 202.66055 294.812661 
L 203.294549 296.347222 
L 203.717247 296.738218 
L 203.82292 297.132249 
L 204.351259 297.929603 
L 206.887349 298.333024 
L 207.838403 298.739676 
L 208.366773 299.14961 
L 209.423669 299.562881 
L 211.537165 301.25044 
L 211.854035 301.25044 
L 212.065402 302.115726 
L 215.341294 303.891826 
L 216.71521 304.34573 
L 219.040048 304.34573 
L 221.364889 304.803727 
L 226.014441 306.203037 
L 226.859968 306.203037 
L 227.494017 306.678176 
L 231.388726 308.624473 
L 231.917095 309.626329 
L 232.868036 310.648348 
L 234.981655 311.167175 
L 237.729197 311.691358 
L 239.208642 312.221009 
L 241.216309 312.756241 
L 241.74483 313.297175 
L 242.801445 313.297175 
L 243.858316 313.843934 
L 245.86614 314.396643 
L 247.97963 315.520442 
L 248.507855 318.44381 
L 265.195439 319.049234 
L 276.502776 319.661964 
L 279.778674 320.282177 
L 287.281567 320.910058 
L 304.929213 322.841671 
L 306.091484 323.502221 
L 308.627674 324.171477 
L 338.533598 324.849671 
L 355.864195 325.537045 
L 356.431961 326.233851 
L 380.862065 326.940351 
L 423.742266 327.656819 
L 431.901299 328.383541 
L 443.250878 328.383541 
L 443.920021 330.628267 
L 447.617617 330.628267 
L 456.763595 337.149868 
L 466.99802 337.149868 
L 480.70302 338.027264 
L 498.109091 338.027264 
L 498.109091 338.027264 
" style="fill:none;stroke:#ff7f0e;stroke-linecap:square;stroke-width:1.5;"/>
   </g>
   <g id="line2d_37">
    <path clip-path="url(#p282837d5c0)" d="M 92.290909 66.96 
L 92.37202 68.514899 
L 92.716753 205.61116 
L 93.03446 224.332107 
L 93.237253 237.138137 
L 93.487517 244.999063 
L 93.656389 251.329083 
L 94.122788 252.301397 
L 94.690613 259.684828 
L 95.326023 259.684828 
L 95.975106 260.833021 
L 96.103542 262.007776 
L 96.400977 268.32743 
L 96.914582 271.093287 
L 97.293112 272.534837 
L 97.556763 274.018507 
L 98.124713 275.546832 
L 98.138104 277.122584 
L 100.274185 287.569847 
L 102.599539 289.37083 
L 103.883891 289.37083 
L 104.03275 295.420932 
L 104.188227 296.347222 
L 105.465677 297.290721 
L 105.621296 297.769127 
L 106.087572 298.252083 
L 106.844813 299.979542 
L 111.691436 299.979542 
L 111.894227 300.23119 
L 112.719052 300.993703 
L 114.463077 300.993703 
L 115.24708 301.25044 
L 115.402681 301.76784 
L 115.760956 302.028531 
L 119.296174 304.437 
L 121.709551 305.545225 
L 122.980234 305.826102 
L 125.217865 305.826102 
L 125.98172 306.108541 
L 127.259318 306.39256 
L 128.056824 306.965407 
L 129.976611 307.544791 
L 131.240827 309.323691 
L 131.389536 309.323691 
L 133.708003 309.93078 
L 134.045993 312.756241 
L 135.161343 313.406057 
L 136.844523 313.73411 
L 137.473199 314.731179 
L 138.690086 315.748217 
L 140.393547 316.786041 
L 141.671145 316.786041 
L 142.644408 318.203646 
L 143.090562 318.564318 
L 144.422218 319.293439 
L 148.343035 320.407133 
L 152.30426 321.5458 
L 153.385824 325.537045 
L 157.374087 328.972499 
L 163.140036 330.781503 
L 166.911971 331.244006 
L 168.203238 331.710759 
L 174.861475 332.657336 
L 176.145965 334.111131 
L 177.443842 334.111131 
L 179.005197 334.605127 
L 179.911007 335.103976 
L 183.960143 335.607774 
L 186.528821 336.630616 
L 188.009233 339.281657 
L 191.267426 339.828887 
L 192.207176 340.382078 
L 195.532831 341.506872 
L 196.864521 341.506872 
L 201.400465 342.078752 
L 203.800032 342.078752 
L 205.179176 343.242203 
L 205.828115 344.432936 
L 209.55274 344.432936 
L 209.856931 345.65226 
L 210.167881 345.65226 
L 211.742907 346.27308 
L 214.115583 347.537962 
L 216.630072 348.182418 
L 253.044999 357.636088 
L 318.499817 357.949561 
L 395.723537 362.899816 
L 448.152314 363.160462 
L 451.36305 369.065608 
L 473.84619 369.163549 
L 482.05916 369.36 
L 498.109091 369.36 
L 498.109091 369.36 
" style="fill:none;stroke:#2ca02c;stroke-linecap:square;stroke-width:1.5;"/>
   </g>
   <g id="patch_3">
    <path d="M 72 384.48 
L 72 51.84 
" style="fill:none;stroke:#000000;stroke-linecap:square;stroke-linejoin:miter;stroke-width:0.8;"/>
   </g>
   <g id="patch_4">
    <path d="M 518.4 384.48 
L 518.4 51.84 
" style="fill:none;stroke:#000000;stroke-linecap:square;stroke-linejoin:miter;stroke-width:0.8;"/>
   </g>
   <g id="patch_5">
    <path d="M 72 384.48 
L 518.4 384.48 
" style="fill:none;stroke:#000000;stroke-linecap:square;stroke-linejoin:miter;stroke-width:0.8;"/>
   </g>
   <g id="patch_6">
    <path d="M 72 51.84 
L 518.4 51.84 
" style="fill:none;stroke:#000000;stroke-linecap:square;stroke-linejoin:miter;stroke-width:0.8;"/>
   </g>
   <g id="text_13">
    <!-- Amélioration de l'algorithme -->
    <defs>
     <path d="M 34.1875 63.1875 
L 20.796875 26.90625 
L 47.609375 26.90625 
z
M 28.609375 72.90625 
L 39.796875 72.90625 
L 67.578125 0 
L 57.328125 0 
L 50.6875 18.703125 
L 17.828125 18.703125 
L 11.1875 0 
L 0.78125 0 
z
" id="DejaVuSans-65"/>
     <path d="M 9.421875 54.6875 
L 18.40625 54.6875 
L 18.40625 0 
L 9.421875 0 
z
M 9.421875 75.984375 
L 18.40625 75.984375 
L 18.40625 64.59375 
L 9.421875 64.59375 
z
" id="DejaVuSans-105"/>
     <path d="M 30.609375 48.390625 
Q 23.390625 48.390625 19.1875 42.75 
Q 14.984375 37.109375 14.984375 27.296875 
Q 14.984375 17.484375 19.15625 11.84375 
Q 23.34375 6.203125 30.609375 6.203125 
Q 37.796875 6.203125 41.984375 11.859375 
Q 46.1875 17.53125 46.1875 27.296875 
Q 46.1875 37.015625 41.984375 42.703125 
Q 37.796875 48.390625 30.609375 48.390625 
z
M 30.609375 56 
Q 42.328125 56 49.015625 48.375 
Q 55.71875 40.765625 55.71875 27.296875 
Q 55.71875 13.875 49.015625 6.21875 
Q 42.328125 -1.421875 30.609375 -1.421875 
Q 18.84375 -1.421875 12.171875 6.21875 
Q 5.515625 13.875 5.515625 27.296875 
Q 5.515625 40.765625 12.171875 48.375 
Q 18.84375 56 30.609375 56 
z
" id="DejaVuSans-111"/>
     <path d="M 17.921875 72.90625 
L 17.921875 45.796875 
L 9.625 45.796875 
L 9.625 72.90625 
z
" id="DejaVuSans-39"/>
     <path d="M 45.40625 27.984375 
Q 45.40625 37.75 41.375 43.109375 
Q 37.359375 48.484375 30.078125 48.484375 
Q 22.859375 48.484375 18.828125 43.109375 
Q 14.796875 37.75 14.796875 27.984375 
Q 14.796875 18.265625 18.828125 12.890625 
Q 22.859375 7.515625 30.078125 7.515625 
Q 37.359375 7.515625 41.375 12.890625 
Q 45.40625 18.265625 45.40625 27.984375 
z
M 54.390625 6.78125 
Q 54.390625 -7.171875 48.1875 -13.984375 
Q 42 -20.796875 29.203125 -20.796875 
Q 24.46875 -20.796875 20.265625 -20.09375 
Q 16.0625 -19.390625 12.109375 -17.921875 
L 12.109375 -9.1875 
Q 16.0625 -11.328125 19.921875 -12.34375 
Q 23.78125 -13.375 27.78125 -13.375 
Q 36.625 -13.375 41.015625 -8.765625 
Q 45.40625 -4.15625 45.40625 5.171875 
L 45.40625 9.625 
Q 42.625 4.78125 38.28125 2.390625 
Q 33.9375 0 27.875 0 
Q 17.828125 0 11.671875 7.65625 
Q 5.515625 15.328125 5.515625 27.984375 
Q 5.515625 40.671875 11.671875 48.328125 
Q 17.828125 56 27.875 56 
Q 33.9375 56 38.28125 53.609375 
Q 42.625 51.21875 45.40625 46.390625 
L 45.40625 54.6875 
L 54.390625 54.6875 
z
" id="DejaVuSans-103"/>
     <path d="M 54.890625 33.015625 
L 54.890625 0 
L 45.90625 0 
L 45.90625 32.71875 
Q 45.90625 40.484375 42.875 44.328125 
Q 39.84375 48.1875 33.796875 48.1875 
Q 26.515625 48.1875 22.3125 43.546875 
Q 18.109375 38.921875 18.109375 30.90625 
L 18.109375 0 
L 9.078125 0 
L 9.078125 75.984375 
L 18.109375 75.984375 
L 18.109375 46.1875 
Q 21.34375 51.125 25.703125 53.5625 
Q 30.078125 56 35.796875 56 
Q 45.21875 56 50.046875 50.171875 
Q 54.890625 44.34375 54.890625 33.015625 
z
" id="DejaVuSans-104"/>
    </defs>
    <g transform="translate(209.639062 45.84)scale(0.12 -0.12)">
     <use xlink:href="#DejaVuSans-65"/>
     <use x="68.408203" xlink:href="#DejaVuSans-109"/>
     <use x="165.820312" xlink:href="#DejaVuSans-233"/>
     <use x="227.34375" xlink:href="#DejaVuSans-108"/>
     <use x="255.126953" xlink:href="#DejaVuSans-105"/>
     <use x="282.910156" xlink:href="#DejaVuSans-111"/>
     <use x="344.091797" xlink:href="#DejaVuSans-114"/>
     <use x="385.205078" xlink:href="#DejaVuSans-97"/>
     <use x="446.484375" xlink:href="#DejaVuSans-116"/>
     <use x="485.693359" xlink:href="#DejaVuSans-105"/>
     <use x="513.476562" xlink:href="#DejaVuSans-111"/>
     <use x="574.658203" xlink:href="#DejaVuSans-110"/>
     <use x="638.037109" xlink:href="#DejaVuSans-32"/>
     <use x="669.824219" xlink:href="#DejaVuSans-100"/>
     <use x="733.300781" xlink:href="#DejaVuSans-101"/>
     <use x="794.824219" xlink:href="#DejaVuSans-32"/>
     <use x="826.611328" xlink:href="#DejaVuSans-108"/>
     <use x="854.394531" xlink:href="#DejaVuSans-39"/>
     <use x="881.884766" xlink:href="#DejaVuSans-97"/>
     <use x="943.164062" xlink:href="#DejaVuSans-108"/>
     <use x="970.947266" xlink:href="#DejaVuSans-103"/>
     <use x="1034.423828" xlink:href="#DejaVuSans-111"/>
     <use x="1095.605469" xlink:href="#DejaVuSans-114"/>
     <use x="1136.71875" xlink:href="#DejaVuSans-105"/>
     <use x="1164.501953" xlink:href="#DejaVuSans-116"/>
     <use x="1203.710938" xlink:href="#DejaVuSans-104"/>
     <use x="1267.089844" xlink:href="#DejaVuSans-109"/>
     <use x="1364.501953" xlink:href="#DejaVuSans-101"/>
    </g>
   </g>
   <g id="legend_1">
    <g id="patch_7">
     <path d="M 302.540625 104.674375 
L 511.4 104.674375 
Q 513.4 104.674375 513.4 102.674375 
L 513.4 58.84 
Q 513.4 56.84 511.4 56.84 
L 302.540625 56.84 
Q 300.540625 56.84 300.540625 58.84 
L 300.540625 102.674375 
Q 300.540625 104.674375 302.540625 104.674375 
z
" style="fill:#ffffff;opacity:0.8;stroke:#cccccc;stroke-linejoin:miter;"/>
    </g>
    <g id="line2d_38">
     <path d="M 304.540625 64.938438 
L 324.540625 64.938438 
" style="fill:none;stroke:#1f77b4;stroke-linecap:square;stroke-width:1.5;"/>
    </g>
    <g id="line2d_39"/>
    <g id="text_14">
     <!-- Version initiale -->
     <defs>
      <path d="M 28.609375 0 
L 0.78125 72.90625 
L 11.078125 72.90625 
L 34.1875 11.53125 
L 57.328125 72.90625 
L 67.578125 72.90625 
L 39.796875 0 
z
" id="DejaVuSans-86"/>
     </defs>
     <g transform="translate(332.540625 68.438438)scale(0.1 -0.1)">
      <use xlink:href="#DejaVuSans-86"/>
      <use x="68.298828" xlink:href="#DejaVuSans-101"/>
      <use x="129.822266" xlink:href="#DejaVuSans-114"/>
      <use x="170.935547" xlink:href="#DejaVuSans-115"/>
      <use x="223.035156" xlink:href="#DejaVuSans-105"/>
      <use x="250.818359" xlink:href="#DejaVuSans-111"/>
      <use x="312" xlink:href="#DejaVuSans-110"/>
      <use x="375.378906" xlink:href="#DejaVuSans-32"/>
      <use x="407.166016" xlink:href="#DejaVuSans-105"/>
      <use x="434.949219" xlink:href="#DejaVuSans-110"/>
      <use x="498.328125" xlink:href="#DejaVuSans-105"/>
      <use x="526.111328" xlink:href="#DejaVuSans-116"/>
      <use x="565.320312" xlink:href="#DejaVuSans-105"/>
      <use x="593.103516" xlink:href="#DejaVuSans-97"/>
      <use x="654.382812" xlink:href="#DejaVuSans-108"/>
      <use x="682.166016" xlink:href="#DejaVuSans-101"/>
     </g>
    </g>
    <g id="line2d_40">
     <path d="M 304.540625 80.016563 
L 324.540625 80.016563 
" style="fill:none;stroke:#ff7f0e;stroke-linecap:square;stroke-width:1.5;"/>
    </g>
    <g id="line2d_41"/>
    <g id="text_15">
     <!-- Après changement des paramètres -->
     <defs>
      <path d="M 56.203125 29.59375 
L 56.203125 25.203125 
L 14.890625 25.203125 
Q 15.484375 15.921875 20.484375 11.0625 
Q 25.484375 6.203125 34.421875 6.203125 
Q 39.59375 6.203125 44.453125 7.46875 
Q 49.3125 8.734375 54.109375 11.28125 
L 54.109375 2.78125 
Q 49.265625 0.734375 44.1875 -0.34375 
Q 39.109375 -1.421875 33.890625 -1.421875 
Q 20.796875 -1.421875 13.15625 6.1875 
Q 5.515625 13.8125 5.515625 26.8125 
Q 5.515625 40.234375 12.765625 48.109375 
Q 20.015625 56 32.328125 56 
Q 43.359375 56 49.78125 48.890625 
Q 56.203125 41.796875 56.203125 29.59375 
z
M 47.21875 32.234375 
Q 47.125 39.59375 43.09375 43.984375 
Q 39.0625 48.390625 32.421875 48.390625 
Q 24.90625 48.390625 20.390625 44.140625 
Q 15.875 39.890625 15.1875 32.171875 
z
M 24.703125 79.984375 
L 38.484375 61.71875 
L 31 61.71875 
L 15.09375 79.984375 
z
" id="DejaVuSans-232"/>
     </defs>
     <g transform="translate(332.540625 83.516563)scale(0.1 -0.1)">
      <use xlink:href="#DejaVuSans-65"/>
      <use x="68.408203" xlink:href="#DejaVuSans-112"/>
      <use x="131.884766" xlink:href="#DejaVuSans-114"/>
      <use x="172.966797" xlink:href="#DejaVuSans-232"/>
      <use x="234.490234" xlink:href="#DejaVuSans-115"/>
      <use x="286.589844" xlink:href="#DejaVuSans-32"/>
      <use x="318.376953" xlink:href="#DejaVuSans-99"/>
      <use x="373.357422" xlink:href="#DejaVuSans-104"/>
      <use x="436.736328" xlink:href="#DejaVuSans-97"/>
      <use x="498.015625" xlink:href="#DejaVuSans-110"/>
      <use x="561.394531" xlink:href="#DejaVuSans-103"/>
      <use x="624.871094" xlink:href="#DejaVuSans-101"/>
      <use x="686.394531" xlink:href="#DejaVuSans-109"/>
      <use x="783.806641" xlink:href="#DejaVuSans-101"/>
      <use x="845.330078" xlink:href="#DejaVuSans-110"/>
      <use x="908.708984" xlink:href="#DejaVuSans-116"/>
      <use x="947.917969" xlink:href="#DejaVuSans-32"/>
      <use x="979.705078" xlink:href="#DejaVuSans-100"/>
      <use x="1043.181641" xlink:href="#DejaVuSans-101"/>
      <use x="1104.705078" xlink:href="#DejaVuSans-115"/>
      <use x="1156.804688" xlink:href="#DejaVuSans-32"/>
      <use x="1188.591797" xlink:href="#DejaVuSans-112"/>
      <use x="1252.068359" xlink:href="#DejaVuSans-97"/>
      <use x="1313.347656" xlink:href="#DejaVuSans-114"/>
      <use x="1354.460938" xlink:href="#DejaVuSans-97"/>
      <use x="1415.740234" xlink:href="#DejaVuSans-109"/>
      <use x="1513.152344" xlink:href="#DejaVuSans-232"/>
      <use x="1574.675781" xlink:href="#DejaVuSans-116"/>
      <use x="1613.884766" xlink:href="#DejaVuSans-114"/>
      <use x="1654.966797" xlink:href="#DejaVuSans-101"/>
      <use x="1716.490234" xlink:href="#DejaVuSans-115"/>
     </g>
    </g>
    <g id="line2d_42">
     <path d="M 304.540625 95.094688 
L 324.540625 95.094688 
" style="fill:none;stroke:#2ca02c;stroke-linecap:square;stroke-width:1.5;"/>
    </g>
    <g id="line2d_43"/>
    <g id="text_16">
     <!-- Diviser pour régner -->
     <defs>
      <path d="M 19.671875 64.796875 
L 19.671875 8.109375 
L 31.59375 8.109375 
Q 46.6875 8.109375 53.6875 14.9375 
Q 60.6875 21.78125 60.6875 36.53125 
Q 60.6875 51.171875 53.6875 57.984375 
Q 46.6875 64.796875 31.59375 64.796875 
z
M 9.8125 72.90625 
L 30.078125 72.90625 
Q 51.265625 72.90625 61.171875 64.09375 
Q 71.09375 55.28125 71.09375 36.53125 
Q 71.09375 17.671875 61.125 8.828125 
Q 51.171875 0 30.078125 0 
L 9.8125 0 
z
" id="DejaVuSans-68"/>
      <path d="M 2.984375 54.6875 
L 12.5 54.6875 
L 29.59375 8.796875 
L 46.6875 54.6875 
L 56.203125 54.6875 
L 35.6875 0 
L 23.484375 0 
z
" id="DejaVuSans-118"/>
     </defs>
     <g transform="translate(332.540625 98.594688)scale(0.1 -0.1)">
      <use xlink:href="#DejaVuSans-68"/>
      <use x="77.001953" xlink:href="#DejaVuSans-105"/>
      <use x="104.785156" xlink:href="#DejaVuSans-118"/>
      <use x="163.964844" xlink:href="#DejaVuSans-105"/>
      <use x="191.748047" xlink:href="#DejaVuSans-115"/>
      <use x="243.847656" xlink:href="#DejaVuSans-101"/>
      <use x="305.371094" xlink:href="#DejaVuSans-114"/>
      <use x="346.484375" xlink:href="#DejaVuSans-32"/>
      <use x="378.271484" xlink:href="#DejaVuSans-112"/>
      <use x="441.748047" xlink:href="#DejaVuSans-111"/>
      <use x="502.929688" xlink:href="#DejaVuSans-117"/>
      <use x="566.308594" xlink:href="#DejaVuSans-114"/>
      <use x="607.421875" xlink:href="#DejaVuSans-32"/>
      <use x="639.208984" xlink:href="#DejaVuSans-114"/>
      <use x="680.291016" xlink:href="#DejaVuSans-233"/>
      <use x="741.814453" xlink:href="#DejaVuSans-103"/>
      <use x="805.291016" xlink:href="#DejaVuSans-110"/>
      <use x="868.669922" xlink:href="#DejaVuSans-101"/>
      <use x="930.193359" xlink:href="#DejaVuSans-114"/>
     </g>
    </g>
   </g>
  </g>
 </g>
 <defs>
  <clipPath id="p282837d5c0">
   <rect height="332.64" width="446.4" x="72" y="51.84"/>
  </clipPath>
 </defs>
</svg>
